<svg width="42" height="42" viewBox="0 0 42 42" fill="none" xmlns="http://www.w3.org/2000/svg">
<circle cx="21" cy="21" r="21" fill="#F2FADC"/>
<path d="M9 30V26.85C9 26.2125 9.15909 25.6266 9.47727 25.0922C9.79545 24.5578 10.2182 24.15 10.7455 23.8687C11.8727 23.2875 13.0182 22.8516 14.1818 22.5609C15.3455 22.2703 16.5273 22.125 17.7273 22.125C18.9273 22.125 20.1091 22.2703 21.2727 22.5609C22.4364 22.8516 23.5818 23.2875 24.7091 23.8687C25.2364 24.15 25.6591 24.5578 25.9773 25.0922C26.2955 25.6266 26.4545 26.2125 26.4545 26.85V30H9ZM28.6364 30V26.625C28.6364 25.8 28.4136 25.0078 27.9682 24.2484C27.5227 23.4891 26.8909 22.8375 26.0727 22.2937C27 22.4062 27.8727 22.5984 28.6909 22.8703C29.5091 23.1422 30.2727 23.475 30.9818 23.8687C31.6364 24.2437 32.1364 24.6609 32.4818 25.1203C32.8273 25.5797 33 26.0812 33 26.625V30H28.6364ZM17.7273 21C16.5273 21 15.5 20.5594 14.6455 19.6781C13.7909 18.7969 13.3636 17.7375 13.3636 16.5C13.3636 15.2625 13.7909 14.2031 14.6455 13.3219C15.5 12.4406 16.5273 12 17.7273 12C18.9273 12 19.9545 12.4406 20.8091 13.3219C21.6636 14.2031 22.0909 15.2625 22.0909 16.5C22.0909 17.7375 21.6636 18.7969 20.8091 19.6781C19.9545 20.5594 18.9273 21 17.7273 21ZM28.6364 16.5C28.6364 17.7375 28.2091 18.7969 27.3545 19.6781C26.5 20.5594 25.4727 21 24.2727 21C24.0727 21 23.8182 20.9766 23.5091 20.9297C23.2 20.8828 22.9455 20.8313 22.7455 20.775C23.2364 20.175 23.6136 19.5094 23.8773 18.7781C24.1409 18.0469 24.2727 17.2875 24.2727 16.5C24.2727 15.7125 24.1409 14.9531 23.8773 14.2219C23.6136 13.4906 23.2364 12.825 22.7455 12.225C23 12.1312 23.2545 12.0703 23.5091 12.0422C23.7636 12.0141 24.0182 12 24.2727 12C25.4727 12 26.5 12.4406 27.3545 13.3219C28.2091 14.2031 28.6364 15.2625 28.6364 16.5ZM11.1818 27.75H24.2727V26.85C24.2727 26.6437 24.2227 26.4562 24.1227 26.2875C24.0227 26.1187 23.8909 25.9875 23.7273 25.8937C22.7455 25.3875 21.7545 25.0078 20.7545 24.7547C19.7545 24.5016 18.7455 24.375 17.7273 24.375C16.7091 24.375 15.7 24.5016 14.7 24.7547C13.7 25.0078 12.7091 25.3875 11.7273 25.8937C11.5636 25.9875 11.4318 26.1187 11.3318 26.2875C11.2318 26.4562 11.1818 26.6437 11.1818 26.85V27.75ZM17.7273 18.75C18.3273 18.75 18.8409 18.5297 19.2682 18.0891C19.6955 17.6484 19.9091 17.1188 19.9091 16.5C19.9091 15.8812 19.6955 15.3516 19.2682 14.9109C18.8409 14.4703 18.3273 14.25 17.7273 14.25C17.1273 14.25 16.6136 14.4703 16.1864 14.9109C15.7591 15.3516 15.5455 15.8812 15.5455 16.5C15.5455 17.1188 15.7591 17.6484 16.1864 18.0891C16.6136 18.5297 17.1273 18.75 17.7273 18.75Z" fill="#ADD934"/>
</svg>
