<svg width="30" height="30" viewBox="0 0 30 30" fill="none" xmlns="http://www.w3.org/2000/svg">
<path d="M3 30C2.175 30 1.46875 29.6736 0.88125 29.0208C0.29375 28.3681 0 27.5833 0 26.6667V21.6667H30V26.6667C30 27.5833 29.7062 28.3681 29.1187 29.0208C28.5312 29.6736 27.825 30 27 30H3ZM3 25V26.6667H27V25H3ZM15 17.5C14.1 17.5 13.3875 17.7778 12.8625 18.3333C12.3375 18.8889 11.375 19.1667 9.975 19.1667C8.575 19.1667 7.625 18.8889 7.125 18.3333C6.625 17.7778 5.925 17.5 5.025 17.5C4.125 17.5 3.4125 17.7778 2.8875 18.3333C2.3625 18.8889 1.4 19.1667 0 19.1667V15.8333C0.9 15.8333 1.6125 15.5556 2.1375 15C2.6625 14.4444 3.625 14.1667 5.025 14.1667C6.425 14.1667 7.375 14.4444 7.875 15C8.375 15.5556 9.075 15.8333 9.975 15.8333C10.875 15.8333 11.5875 15.5556 12.1125 15C12.6375 14.4444 13.6 14.1667 15 14.1667C16.4 14.1667 17.3625 14.4444 17.8875 15C18.4125 15.5556 19.125 15.8333 20.025 15.8333C20.925 15.8333 21.625 15.5556 22.125 15C22.625 14.4444 23.575 14.1667 24.975 14.1667C26.375 14.1667 27.3625 14.4444 27.9375 15C28.5125 15.5556 29.2 15.8333 30 15.8333V19.1667C28.6 19.1667 27.6625 18.8889 27.1875 18.3333C26.7125 17.7778 26.025 17.5 25.125 17.5C24.225 17.5 23.5 17.7778 22.95 18.3333C22.4 18.8889 21.425 19.1667 20.025 19.1667C18.625 19.1667 17.6625 18.8889 17.1375 18.3333C16.6125 17.7778 15.9 17.5 15 17.5ZM0 11.6667V10C0 6.80556 1.35625 4.34028 4.06875 2.60417C6.78125 0.868056 10.425 0 15 0C19.575 0 23.2187 0.868056 25.9312 2.60417C28.6437 4.34028 30 6.80556 30 10V11.6667H0ZM15 3.33333C11.9 3.33333 9.30625 3.76389 7.21875 4.625C5.13125 5.48611 3.8 6.72222 3.225 8.33333H26.775C26.2 6.72222 24.8687 5.48611 22.7812 4.625C20.6937 3.76389 18.1 3.33333 15 3.33333Z" fill="#C0C0C0"/>
</svg>
