<svg width="28" height="38" viewBox="0 0 28 38" fill="none" xmlns="http://www.w3.org/2000/svg">
<g filter="url(#filter0_i_64_437)">
<path d="M14 38C10.1 38 6.79167 36.643 4.075 33.9289C1.35833 31.2148 0 27.9096 0 24.0133C0 20.883 0.925 18.0773 2.775 15.5963C4.625 13.1154 7.05 11.442 10.05 10.5761C9.38333 10.4096 8.73333 10.1682 8.1 9.85182C7.46667 9.53545 6.9 9.12751 6.4 8.62799C5.3 7.52903 4.59167 6.22195 4.275 4.70672C3.95833 3.1915 3.88333 1.6513 4.05 0.0861248C5.61667 -0.0803832 7.15833 -0.00545457 8.675 0.310911C10.1917 0.627276 11.5 1.33494 12.6 2.43389C13.3667 3.19982 13.925 4.06567 14.275 5.03141C14.625 5.99716 14.85 7.01286 14.95 8.07851C15.3833 7.04616 15.9083 6.07209 16.525 5.15629C17.1417 4.2405 17.8333 3.39963 18.6 2.6337C18.9667 2.26738 19.4333 2.08422 20 2.08422C20.5667 2.08422 21.0333 2.26738 21.4 2.6337C21.7667 3.00002 21.95 3.46624 21.95 4.03236C21.95 4.59849 21.7667 5.06471 21.4 5.43103C20.6667 6.16367 20.0167 6.97123 19.45 7.85372C18.8833 8.73622 18.4667 9.67699 18.2 10.676C21.1333 11.6085 23.5 13.2985 25.3 15.7462C27.1 18.1939 28 20.9496 28 24.0133C28 27.9096 26.6417 31.2148 23.925 33.9289C21.2083 36.643 17.9 38 14 38ZM14 34.0038C16.7667 34.0038 19.125 33.0297 21.075 31.0816C23.025 29.1334 24 26.7774 24 24.0133C24 21.2493 23.025 18.8932 21.075 16.9451C19.125 14.9969 16.7667 14.0228 14 14.0228C11.2333 14.0228 8.875 14.9969 6.925 16.9451C4.975 18.8932 4 21.2493 4 24.0133C4 26.7774 4.975 29.1334 6.925 31.0816C8.875 33.0297 11.2333 34.0038 14 34.0038Z" fill="#FFBE46"/>
</g>
<defs>
<filter id="filter0_i_64_437" x="0" y="0" width="28" height="42" filterUnits="userSpaceOnUse" color-interpolation-filters="sRGB">
<feFlood flood-opacity="0" result="BackgroundImageFix"/>
<feBlend mode="normal" in="SourceGraphic" in2="BackgroundImageFix" result="shape"/>
<feColorMatrix in="SourceAlpha" type="matrix" values="0 0 0 0 0 0 0 0 0 0 0 0 0 0 0 0 0 0 127 0" result="hardAlpha"/>
<feOffset dy="4"/>
<feGaussianBlur stdDeviation="2"/>
<feComposite in2="hardAlpha" operator="arithmetic" k2="-1" k3="1"/>
<feColorMatrix type="matrix" values="0 0 0 0 0 0 0 0 0 0 0 0 0 0 0 0 0 0 0.25 0"/>
<feBlend mode="normal" in2="shape" result="effect1_innerShadow_64_437"/>
</filter>
</defs>
</svg>
