<svg width="42" height="42" viewBox="0 0 42 42" fill="none" xmlns="http://www.w3.org/2000/svg">
<circle cx="21" cy="21" r="21" fill="#D8F7CD"/>
<path d="M19.7778 29.91V21.69L12.4444 17.52V25.74L19.7778 29.91ZM22.2222 29.91L29.5556 25.74V17.52L22.2222 21.69V29.91ZM19.7778 32.67L11.2222 27.84C10.8352 27.62 10.5347 27.33 10.3208 26.97C10.1069 26.61 10 26.21 10 25.77V16.23C10 15.79 10.1069 15.39 10.3208 15.03C10.5347 14.67 10.8352 14.38 11.2222 14.16L19.7778 9.33C20.1648 9.11 20.5722 9 21 9C21.4278 9 21.8352 9.11 22.2222 9.33L30.7778 14.16C31.1648 14.38 31.4653 14.67 31.6792 15.03C31.8931 15.39 32 15.79 32 16.23V25.77C32 26.21 31.8931 26.61 31.6792 26.97C31.4653 27.33 31.1648 27.62 30.7778 27.84L22.2222 32.67C21.8352 32.89 21.4278 33 21 33C20.5722 33 20.1648 32.89 19.7778 32.67ZM25.8889 16.83L28.2417 15.51L21 11.4L18.6167 12.75L25.8889 16.83ZM21 19.62L23.3833 18.27L16.1417 14.16L13.7583 15.51L21 19.62Z" fill="#80F057"/>
</svg>
