<svg width="30" height="33" viewBox="0 0 30 33" fill="none" xmlns="http://www.w3.org/2000/svg">
<path d="M13.3333 28.7513V17.4488L3.33333 11.715V23.0175L13.3333 28.7513ZM16.6667 28.7513L26.6667 23.0175V11.715L16.6667 17.4488V28.7513ZM15 14.6025L24.875 8.95125L15 3.3L5.125 8.95125L15 14.6025ZM1.66667 25.905C1.13889 25.6025 0.729167 25.2038 0.4375 24.7088C0.145833 24.2138 0 23.6638 0 23.0588V9.94125C0 9.33625 0.145833 8.78625 0.4375 8.29125C0.729167 7.79625 1.13889 7.3975 1.66667 7.095L13.3333 0.45375C13.8611 0.15125 14.4167 0 15 0C15.5833 0 16.1389 0.15125 16.6667 0.45375L28.3333 7.095C28.8611 7.3975 29.2708 7.79625 29.5625 8.29125C29.8542 8.78625 30 9.33625 30 9.94125V23.0588C30 23.6638 29.8542 24.2138 29.5625 24.7088C29.2708 25.2038 28.8611 25.6025 28.3333 25.905L16.6667 32.5463C16.1389 32.8488 15.5833 33 15 33C14.4167 33 13.8611 32.8488 13.3333 32.5463L1.66667 25.905Z" fill="#27DD8E"/>
</svg>
