<svg width="153" height="153" viewBox="0 0 153 153" fill="none" xmlns="http://www.w3.org/2000/svg">
<g clip-path="url(#clip0_766_142)">
<path d="M0 0H153V153H0V0Z" fill="#EFEFEF"/>
<path d="M63.75 92.75C62.7188 92.75 61.8359 92.3828 61.1016 91.6484C60.3672 90.9141 60 90.0312 60 89V62.75C60 61.7188 60.3672 60.8359 61.1016 60.1016C61.8359 59.3672 62.7188 59 63.75 59H90C91.0312 59 91.9141 59.3672 92.6484 60.1016C93.3828 60.8359 93.75 61.7188 93.75 62.75V89C93.75 90.0312 93.3828 90.9141 92.6484 91.6484C91.9141 92.3828 91.0312 92.75 90 92.75H63.75ZM63.75 89H90V62.75H63.75V89ZM65.625 85.25H88.125L81.0938 75.875L75.4688 83.375L71.25 77.75L65.625 85.25Z" fill="#898989"/>
</g>
<defs>
<clipPath id="clip0_766_142">
<rect width="153" height="153" fill="white"/>
</clipPath>
</defs>
</svg>
