<svg width="42" height="42" viewBox="0 0 42 42" fill="none" xmlns="http://www.w3.org/2000/svg">
<path d="M42 21C42 32.598 32.598 42 21 42C9.40202 42 0 32.598 0 21C0 9.40202 9.40202 0 21 0C32.598 0 42 9.40202 42 21Z" fill="#CDF7E5"/>
<path d="M19.7487 32V29.2528C18.615 28.9972 17.6364 28.5074 16.8128 27.7833C15.9893 27.0593 15.385 26.037 15 24.7167L17.3743 23.7583C17.6952 24.7806 18.1711 25.5579 18.8021 26.0903C19.4332 26.6227 20.262 26.8889 21.2888 26.8889C22.1658 26.8889 22.9091 26.6919 23.5187 26.2979C24.1283 25.9039 24.4332 25.2917 24.4332 24.4611C24.4332 23.7157 24.1979 23.1248 23.7273 22.6882C23.2567 22.2516 22.1658 21.7565 20.4545 21.2028C18.615 20.6278 17.3529 19.941 16.6684 19.1424C15.984 18.3438 15.6417 17.3694 15.6417 16.2194C15.6417 14.8352 16.0909 13.7597 16.9893 12.9931C17.8877 12.2264 18.8075 11.7898 19.7487 11.6833V9H22.3155V11.6833C23.385 11.8537 24.2674 12.2424 24.9626 12.8493C25.6578 13.4563 26.1658 14.1963 26.4866 15.0694L24.1123 16.0917C23.8556 15.4102 23.492 14.8991 23.0214 14.5583C22.5508 14.2176 21.9091 14.0472 21.0963 14.0472C20.1551 14.0472 19.4385 14.2549 18.9465 14.6701C18.4545 15.0854 18.2086 15.6019 18.2086 16.2194C18.2086 16.9222 18.5294 17.4759 19.1711 17.8806C19.8128 18.2852 20.9251 18.7111 22.508 19.1583C23.984 19.5843 25.1016 20.2604 25.861 21.1868C26.6203 22.1132 27 23.1833 27 24.3972C27 25.9093 26.5508 27.0593 25.6524 27.8472C24.754 28.6352 23.6417 29.125 22.3155 29.3167V32H19.7487Z" fill="#20B977"/>
</svg>
