<svg width="30" height="30" viewBox="0 0 30 30" fill="none" xmlns="http://www.w3.org/2000/svg">
<path d="M16.8068 16.3636C16.0795 15.3409 15.1193 14.6307 13.9261 14.233C12.733 13.8352 11.5 13.6364 10.2273 13.6364C8.95455 13.6364 7.72159 13.8352 6.52841 14.233C5.33523 14.6307 4.375 15.3409 3.64773 16.3636H16.8068ZM0 19.0909C0 16.6136 1.03409 14.6307 3.10227 13.142C5.17045 11.6534 7.54545 10.9091 10.2273 10.9091C12.9091 10.9091 15.2841 11.6534 17.3523 13.142C19.4205 14.6307 20.4545 16.6136 20.4545 19.0909H0ZM0 24.5455V21.8182H20.4545V24.5455H0ZM23.1818 30V27.2727H25.0909L27 8.18182H13.9773L13.6364 5.45455H20.4545V0H23.1818V5.45455H30L27.75 28.0227C27.6818 28.5909 27.4318 29.0625 27 29.4375C26.5682 29.8125 26.0682 30 25.5 30H23.1818ZM1.36364 30C0.977273 30 0.653409 29.8693 0.392045 29.608C0.130682 29.3466 0 29.0227 0 28.6364V27.2727H20.4545V28.6364C20.4545 29.0227 20.3239 29.3466 20.0625 29.608C19.8011 29.8693 19.4773 30 19.0909 30H1.36364Z" fill="#C0C0C0"/>
</svg>
