<svg width="36" height="36" viewBox="0 0 36 36" fill="none" xmlns="http://www.w3.org/2000/svg">
<path d="M19.8 16.2H32.31C31.86 12.9 30.4875 10.1025 28.1925 7.8075C25.8975 5.5125 23.1 4.14 19.8 3.69V16.2ZM16.2 32.31V3.69C12.57 4.14 9.5625 5.7225 7.1775 8.4375C4.7925 11.1525 3.6 14.34 3.6 18C3.6 21.66 4.7925 24.8475 7.1775 27.5625C9.5625 30.2775 12.57 31.86 16.2 32.31ZM19.8 32.31C23.1 31.89 25.905 30.525 28.215 28.215C30.525 25.905 31.89 23.1 32.31 19.8H19.8V32.31ZM18 36C15.51 36 13.17 35.5275 10.98 34.5825C8.79 33.6375 6.885 32.355 5.265 30.735C3.645 29.115 2.3625 27.21 1.4175 25.02C0.4725 22.83 0 20.49 0 18C0 15.51 0.4725 13.17 1.4175 10.98C2.3625 8.79 3.645 6.885 5.265 5.265C6.885 3.645 8.79 2.3625 10.98 1.4175C13.17 0.4725 15.51 0 18 0C20.49 0 22.8225 0.4725 24.9975 1.4175C27.1725 2.3625 29.0775 3.6525 30.7125 5.2875C32.3475 6.9225 33.6375 8.8275 34.5825 11.0025C35.5275 13.1775 36 15.51 36 18C36 20.46 35.5275 22.785 34.5825 24.975C33.6375 27.165 32.355 29.0775 30.735 30.7125C29.115 32.3475 27.21 33.6375 25.02 34.5825C22.83 35.5275 20.49 36 18 36Z" fill="#27DD8E"/>
</svg>
