<svg width="36" height="36" viewBox="0 0 36 36" fill="none" xmlns="http://www.w3.org/2000/svg">
<path d="M5.4 36C4.41 36 3.5625 35.6475 2.8575 34.9425C2.1525 34.2375 1.8 33.39 1.8 32.4V12.105C1.26 11.775 0.825 11.3475 0.495 10.8225C0.165 10.2975 0 9.69 0 9V3.6C0 2.61 0.3525 1.7625 1.0575 1.0575C1.7625 0.3525 2.61 0 3.6 0H32.4C33.39 0 34.2375 0.3525 34.9425 1.0575C35.6475 1.7625 36 2.61 36 3.6V9C36 9.69 35.835 10.2975 35.505 10.8225C35.175 11.3475 34.74 11.775 34.2 12.105V32.4C34.2 33.39 33.8475 34.2375 33.1425 34.9425C32.4375 35.6475 31.59 36 30.6 36H5.4ZM5.4 12.6V32.4H30.6V12.6H5.4ZM3.6 9H32.4V3.6H3.6V9ZM12.6 21.6H23.4V18H12.6V21.6Z" fill="#E0FAEF"/>
</svg>
